<svg xmlns="http://www.w3.org/2000/svg" version="1.1" xmlns:xlink="http://www.w3.org/1999/xlink" xmlns:svgjs="http://svgjs.com/svgjs" width="1440" height="560" preserveAspectRatio="none" viewBox="0 0 1440 560"><g mask="url(&quot;#SvgjsMask1064&quot;)" fill="none"><rect width="1440" height="560" x="0" y="0" fill="url(#SvgjsLinearGradient1065)"></rect><path d="M100.862,273.677C132.452,273.246,151.369,242.436,167.009,214.986C182.43,187.922,196.78,157.298,183.124,129.302C168.052,98.404,135.238,79.764,100.862,79.38C65.822,78.988,31.137,96.141,15.353,127.427C0.732,156.407,15.134,188.812,31.517,216.833C47.686,244.488,68.83,274.114,100.862,273.677" fill="rgba(28, 83, 142, 0.4)" class="triangle-float1"></path><path d="M865.4,317.139C911.549,318.512,957.622,299.727,981.378,260.139C1005.77,219.49,1004.79,167.383,979.218,127.466C955.385,90.263,909.545,77.307,865.4,79.103C824.671,80.76,787.531,101.159,766.569,136.119C744.964,172.152,740.657,216.7,760.79,253.576C781.746,291.96,821.687,315.838,865.4,317.139" fill="rgba(28, 83, 142, 0.4)" class="triangle-float3"></path><path d="M1153.202,515.333C1176.149,514.345,1193.864,496.858,1204.398,476.448C1214.003,457.838,1213.545,436.226,1203.521,417.839C1193.01,398.558,1175.16,382.273,1153.202,382.539C1131.591,382.801,1116.107,400.521,1104.954,419.034C1093.306,438.368,1083.643,461.032,1093.754,481.213C1104.723,503.107,1128.737,516.387,1153.202,515.333" fill="rgba(28, 83, 142, 0.4)" class="triangle-float1"></path><path d="M968.733,544.769C996.521,544.788,1022.465,530.165,1036.151,505.981C1049.64,482.144,1049.131,452.21,1034.051,429.346C1020.252,408.425,993.793,403.479,968.733,403.763C944.308,404.04,919.367,410.399,905.932,430.799C891.15,453.244,888.503,482.352,901.473,505.89C914.868,530.199,940.978,544.75,968.733,544.769" fill="rgba(28, 83, 142, 0.4)" class="triangle-float3"></path><path d="M1389.537,356.613C1422.383,357.541,1459.633,355.503,1476.768,327.465C1494.373,298.658,1482.031,262.677,1464.623,233.75C1447.877,205.923,1422,181.54,1389.537,182.508C1358.272,183.441,1337.191,210.764,1321.827,238.009C1306.819,264.622,1295.294,296.233,1310.442,322.767C1325.68,349.46,1358.813,355.745,1389.537,356.613" fill="rgba(28, 83, 142, 0.4)" class="triangle-float1"></path><path d="M444.734,77.372C462.018,77.21,481.15,74.695,489.781,59.719C498.405,44.755,491.111,26.878,482.448,11.937C473.822,-2.941,461.932,-17.85,444.734,-17.979C427.381,-18.109,414.874,-3.565,406.03,11.365C396.957,26.682,389.198,45.22,398.203,60.577C407.143,75.823,427.061,77.537,444.734,77.372" fill="rgba(28, 83, 142, 0.4)" class="triangle-float3"></path><path d="M339.676,378.018C382.758,374.523,421.485,356.28,446.339,320.916C476.444,278.08,504.55,224.561,480.041,178.295C454.595,130.259,393.871,115.336,339.676,119.564C292.523,123.243,258.2,157.737,232.733,197.591C204.344,242.017,171.26,295.696,198.142,341.05C224.79,386.008,287.585,382.244,339.676,378.018" fill="rgba(28, 83, 142, 0.4)" class="triangle-float3"></path><path d="M1442.916,638.336C1491.935,640.402,1547.711,637.491,1573.468,595.733C1600.048,552.641,1584.696,496.774,1555.934,455.107C1530.973,418.945,1486.854,407.027,1442.916,406.599C1398.002,406.161,1349.974,414.873,1326.018,452.867C1300.737,492.961,1304.855,545.377,1330.129,585.476C1353.857,623.123,1398.454,636.462,1442.916,638.336" fill="rgba(28, 83, 142, 0.4)" class="triangle-float1"></path></g><defs><mask id="SvgjsMask1064"><rect width="1440" height="560" fill="#ffffff"></rect></mask><linearGradient x1="15.28%" y1="-39.29%" x2="84.72%" y2="139.29%" gradientUnits="userSpaceOnUse" id="SvgjsLinearGradient1065"><stop stop-color="rgba(255, 152, 0, 1)" offset="0"></stop><stop stop-color="rgba(255, 152, 0, 0.4392156862745098)" offset="1"></stop></linearGradient><style>
            @keyframes float1 {
                0%{transform: translate(0, 0)}
                50%{transform: translate(-10px, 0)}
                100%{transform: translate(0, 0)}
            }

            .triangle-float1 {
                animation: float1 5s infinite;
            }

            @keyframes float2 {
                0%{transform: translate(0, 0)}
                50%{transform: translate(-5px, -5px)}
                100%{transform: translate(0, 0)}
            }

            .triangle-float2 {
                animation: float2 4s infinite;
            }

            @keyframes float3 {
                0%{transform: translate(0, 0)}
                50%{transform: translate(0, -10px)}
                100%{transform: translate(0, 0)}
            }

            .triangle-float3 {
                animation: float3 6s infinite;
            }
        </style></defs></svg>